<mxfile host="app.diagrams.net" modified="2024-05-31T14:00:29.527Z" agent="Mozilla/5.0 (X11; Linux x86_64; rv:126.0) Gecko/20100101 Firefox/126.0" etag="QeXM6E1Oxt2qX7zmYeCL" version="24.4.13" type="github">
  <diagram name="Page-1" id="1g0HMfGN20ivUGnNiXPL">
    <mxGraphModel dx="1363" dy="960" grid="0" gridSize="10" guides="1" tooltips="1" connect="1" arrows="1" fold="1" page="0" pageScale="1" pageWidth="850" pageHeight="1100" math="0" shadow="0">
      <root>
        <mxCell id="0" />
        <mxCell id="1" parent="0" />
        <mxCell id="Vqx6203i5S-1iYUc__Qy-2" value=":View AccettazionePalestra" style="rounded=0;whiteSpace=wrap;html=1;fillColor=#f8cecc;strokeColor=#b85450;" vertex="1" parent="1">
          <mxGeometry x="129" y="-22" width="170" height="60" as="geometry" />
        </mxCell>
        <mxCell id="Vqx6203i5S-1iYUc__Qy-3" value="Amministratore" style="rounded=0;whiteSpace=wrap;html=1;" vertex="1" parent="1">
          <mxGeometry x="-87" y="-22" width="170" height="60" as="geometry" />
        </mxCell>
        <mxCell id="Vqx6203i5S-1iYUc__Qy-4" value=":GestioneAmministratore Controller" style="rounded=0;whiteSpace=wrap;html=1;fillColor=#d5e8d4;strokeColor=#82b366;" vertex="1" parent="1">
          <mxGeometry x="345" y="-22" width="170" height="60" as="geometry" />
        </mxCell>
        <mxCell id="Vqx6203i5S-1iYUc__Qy-8" value="" style="endArrow=none;dashed=1;html=1;rounded=0;exitX=0.5;exitY=1;exitDx=0;exitDy=0;" edge="1" parent="1" source="Vqx6203i5S-1iYUc__Qy-3">
          <mxGeometry width="50" height="50" relative="1" as="geometry">
            <mxPoint x="185" y="187" as="sourcePoint" />
            <mxPoint x="-3" y="467" as="targetPoint" />
          </mxGeometry>
        </mxCell>
        <mxCell id="Vqx6203i5S-1iYUc__Qy-9" value="" style="endArrow=none;dashed=1;html=1;rounded=0;exitX=0.5;exitY=1;exitDx=0;exitDy=0;" edge="1" parent="1" source="Vqx6203i5S-1iYUc__Qy-2">
          <mxGeometry width="50" height="50" relative="1" as="geometry">
            <mxPoint x="214.5" y="42" as="sourcePoint" />
            <mxPoint x="213.5" y="471" as="targetPoint" />
          </mxGeometry>
        </mxCell>
        <mxCell id="Vqx6203i5S-1iYUc__Qy-10" value="" style="endArrow=none;dashed=1;html=1;rounded=0;exitX=0.5;exitY=1;exitDx=0;exitDy=0;" edge="1" parent="1" source="Vqx6203i5S-1iYUc__Qy-4">
          <mxGeometry width="50" height="50" relative="1" as="geometry">
            <mxPoint x="430.5" y="42" as="sourcePoint" />
            <mxPoint x="429.5" y="471" as="targetPoint" />
          </mxGeometry>
        </mxCell>
      </root>
    </mxGraphModel>
  </diagram>
</mxfile>
